<?xml version="1.0" encoding="utf-8"?>
<!DOCTYPE svg PUBLIC "-//W3C//DTD SVG 1.1//EN" "http://www.w3.org/Graphics/SVG/1.1/DTD/svg11.dtd">
<svg version="1.1" id="图形" xmlns="http://www.w3.org/2000/svg" xmlns:xlink="http://www.w3.org/1999/xlink" x="0px" y="0px" width="1024px" height="1024px" viewBox="0 0 1024 1024" enable-background="new 0 0 1024 1024" xml:space="preserve">
  <path fill="#272636" d="M1023.172923 488.416c-0.787692 1.811692-1.654154 3.584-2.638769 5.238154l-141.863385 238.08-111.025231-243.357538L1023.172923 488.376615 1023.172923 488.416zM321.299692 488.416l378.958769 0-189.518769 268.209231L321.299692 488.416zM471.827692 768.519385 204.327385 768.519385c-10.436923 0-21.700923-3.780923-31.271385-9.885538l114.530462-250.919385L471.827692 768.519385 471.827692 768.519385zM849.841231 761.745231c-8.231385 4.292923-17.329231 6.813538-25.875692 6.813538l-274.313846 0 184.280615-260.804923L849.841231 761.745231 849.841231 761.745231zM310.508308 449.740308l199.68-618.141538c0.512-0.078769 0.945231-0.118154 1.417846-0.157538l199.404308 618.299077L310.508308 449.740308 310.508308 449.740308zM145.723077 725.314462 7.719385 493.654154c-1.063385-1.772308-2.087385-3.544615-3.111385-5.238154l249.225846 0L145.723077 725.314462 145.723077 725.314462zM0 449.740308l1.102769-1.929846L3.150769 447.810462c2.323692-2.835692 5.474462-6.734769 9.294769-11.500308L450.717538-109.993846 269.863385 449.740308 0 449.740308 0 449.740308zM1024 449.740308l-272.344615 0-185.383385-574.739692L1016.595692 436.310154C1019.785846 440.288 1022.227692 444.856615 1024 449.740308L1024 449.740308zM1024 449.740308" transform="translate(0, 812) scale(1, -1)"/>
</svg>
