<?xml version="1.0" encoding="utf-8"?>
<!DOCTYPE svg PUBLIC "-//W3C//DTD SVG 1.1//EN" "http://www.w3.org/Graphics/SVG/1.1/DTD/svg11.dtd">
<svg version="1.1" id="图形" xmlns="http://www.w3.org/2000/svg" xmlns:xlink="http://www.w3.org/1999/xlink" x="0px" y="0px" width="1024px" height="1024px" viewBox="0 0 1024 1024" enable-background="new 0 0 1024 1024" xml:space="preserve">
  <path fill="#272636" d="M940.742 608.633c0 0-225.338-376.607-766.778-425.639 0 0 186.388 210.716 406.862 273.311 0 0 62.945 25.738-20.865 18.794 0 0-269.154-22.952-428.769-260.808 0 0-44.435 300.697 255.439 334.405 1.433 0.164 2.877 0.326 4.328 0.473 304.624 31.298 311.927-10.431 549.784 59.465zM581.421 282.199c-14.981-2.087-27.482-7.385-35.822-11.883l-223.317-166.999c-0.913-1.532-1.752-3.505-2.494-5.852-4.995-66.979 62.823-46.962 62.823-46.962l154.66 104.845c74.363 22.967 70.418-23.995 60.508-45.643-2.682-5.868-6.782-8.601-6.782-8.601l-182.306-110.578h-257.671c-2.918-1.023-5.298-1.373-7.156-2.124-31.892-29.096-13.228-57.119-4.768-66.867 1.891-1.304 4.352-2.772 6.976-3.766l377.244-2.398 218.95 164.228 181.262 4.035 0.522 200.035-342.63-1.471z" transform="translate(0, 812) scale(1, -1)"/>
</svg>
