<?xml version="1.0" encoding="utf-8"?>
<!DOCTYPE svg PUBLIC "-//W3C//DTD SVG 1.1//EN" "http://www.w3.org/Graphics/SVG/1.1/DTD/svg11.dtd">
<svg version="1.1" id="图形" xmlns="http://www.w3.org/2000/svg" xmlns:xlink="http://www.w3.org/1999/xlink" x="0px" y="0px" width="1024px" height="1024px" viewBox="0 0 1024 1024" enable-background="new 0 0 1024 1024" xml:space="preserve">
  <path fill="#272636" d="M678.826667 685.557333 678.826667 685.557333c7.338667 0 20.842667-1.194667 29.482667-9.258667 1.984-1.813333 7.936-7.381333 7.936-21.12 0-15.424-8.341333-39.658667-31.850667-61.589333-28.736-26.752-76.138667-46.976-110.272-46.976-9.834667 0-14.485333 1.792-15.296 1.792-0.021333 0-0.042667-0.042667-0.042667-0.042667-6.314667 12.885333 7.445333 68.650667 47.189333 105.706667C627.157333 673.781333 654.378667 685.557333 678.826667 685.557333M678.826667 750.88c-39.402667 0-82.794667-16.832-117.376-49.024-59.413333-55.402667-94.058667-157.525333-47.872-200.597333 14.890667-13.845333 36.330667-19.904 60.544-19.904 51.072 0 114.474667 26.901333 154.794667 64.469333 59.413333 55.402667 70.165333 135.210667 23.936 178.304C733.504 742.154667 707.2 750.88 678.826667 750.88M345.173333 685.557333c24.448 0 51.669333-11.776 72.853333-31.488 40.021333-37.312 53.738667-93.653333 48.149333-104.768-0.042667-0.021333-4.309333-2.688-16.32-2.688-34.112 0-81.493333 20.224-110.229333 46.976-23.488 21.909333-31.872 46.186667-31.872 61.632 0 13.717333 5.973333 19.285333 7.936 21.077333C324.330667 684.384 337.856 685.557333 345.173333 685.557333M345.173333 750.88c-28.416 0-54.656-8.725333-74.048-26.752-46.186667-43.093333-35.434667-122.922667 23.978667-178.304 40.298667-37.568 103.68-64.469333 154.752-64.469333 24.234667 0 45.696 6.058667 60.565333 19.904 46.186667 43.072 11.541333 145.216-47.872 200.597333C427.946667 734.048 384.533333 750.88 345.173333 750.88M896 225.333333 896 449.333333c0 35.2-28.8 64-64 64L544 513.333333l0-288L896 225.333333zM544 161.333333 544-126.666667 832-126.666667c35.2 0 64 28.8 64 64L896 161.333333 544 161.333333zM480 225.333333 480 513.333333 192 513.333333c-35.2 0-64-28.8-64-64l0-224L480 225.333333zM128 161.333333 128-62.666667c0-35.2 28.8-64 64-64l288 0L480 161.333333 128 161.333333z" transform="translate(0, 812) scale(1, -1)"/>
</svg>
