<?xml version="1.0" encoding="utf-8"?>
<!DOCTYPE svg PUBLIC "-//W3C//DTD SVG 1.1//EN" "http://www.w3.org/Graphics/SVG/1.1/DTD/svg11.dtd">
<svg version="1.1" id="图形" xmlns="http://www.w3.org/2000/svg" xmlns:xlink="http://www.w3.org/1999/xlink" x="0px" y="0px" width="1024px" height="1024px" viewBox="0 0 1024 1024" enable-background="new 0 0 1024 1024" xml:space="preserve">
  <path fill="#272636" d="M362.163925 0.279754l208.330816 94.794993L570.494741 601.596989l-208.330816-93.567026L362.163925 0.279754zM484.132814 262.28605l32.409131 32.385595c5.836939 5.837962 15.243169 5.76633 21.173229 0 8.904811-8.65717 0-21.173229 0-21.173229l-32.410154-32.410154c-5.836939-5.836939-15.311731-5.836939-21.173229 0C478.294852 246.950783 478.294852 256.425575 484.132814 262.28605zM394.318252 172.447952l32.385595 32.385595c5.861498 5.862521 14.786775 5.257747 21.173229 0 10.568706-8.699126 0-21.173229 0-21.173229l-32.385595-32.385595c-5.836939-5.836939-15.335267-5.836939-21.173229 0C388.457778 157.112686 388.457778 166.587478 394.318252 172.447952zM722.695165 508.656227l0-506.499729 237.033531 66.741054L959.728696 571.042089 722.695165 508.656227zM807.182394 273.498416l-32.386618-32.410154c-5.861498-5.836939-15.334243-5.836939-21.173229 0-5.861498 5.862521-5.861498 15.33629 0 21.197788l32.385595 32.385595c5.861498 5.837962 14.794961 5.240351 21.174252 0C818.13791 285.673713 807.182394 273.498416 807.182394 273.498416zM897.018445 363.335491l-32.409131-32.409131c-5.836939-5.860475-15.311731-5.860475-21.172205 0-5.838985 5.861498-5.838985 15.312754 0 21.150716l32.409131 32.409131c5.836939 5.860475 15.305591 5.854335 21.172205 0C906.653897 374.872245 897.018445 363.335491 897.018445 363.335491zM603.553671 90.116829l87.960331-91.713818L691.514002 511.157187l-87.960331 89.814562L603.553671 90.116829zM628.33303 271.547994c5.837962 5.837962 15.312754 5.837962 21.174252 0l32.384571-32.409131c5.862521-5.837962 5.862521-15.313777 0-21.173229-5.837962-5.837962-15.313777-5.837962-21.173229 0l-32.385595 32.409131C622.496092 256.212728 622.496092 265.68752 628.33303 271.547994zM63.972499 90.116829l268.23823-84.856643L332.210729 509.281467 63.972499 599.118542 63.972499 90.116829zM257.639337 180.417461l33.660634 0c8.269337 0 14.96483-6.719028 14.96483-14.988366s-6.694469-14.987343-14.96483-14.987343l-33.660634 0c-8.270361 0-14.965853 6.718005-14.965853 14.987343S249.368976 180.417461 257.639337 180.417461zM184.712397 265.668077c5.861498 5.837962 15.335267 5.837962 21.174252 0l32.409131-32.409131c5.837962-5.837962 5.837962-15.313777 0-21.173229-5.861498-5.837962-15.33629-5.837962-21.173229 0l-32.409131 32.409131C178.875458 250.33281 178.875458 259.807602 184.712397 265.668077zM94.898859 355.482639c5.838985 5.838985 15.312754 5.838985 21.173229 0l32.385595-32.409131c5.861498-5.837962 5.861498-15.312754 0-21.172205-5.837962-5.838985-15.312754-5.838985-21.150716 0l-32.409131 32.408107C89.037361 340.169885 89.037361 349.621141 94.898859 355.482639z" transform="translate(0, 812) scale(1, -1)"/>
</svg>
