<?xml version="1.0" encoding="utf-8"?>
<!DOCTYPE svg PUBLIC "-//W3C//DTD SVG 1.1//EN" "http://www.w3.org/Graphics/SVG/1.1/DTD/svg11.dtd">
<svg version="1.1" id="图形" xmlns="http://www.w3.org/2000/svg" xmlns:xlink="http://www.w3.org/1999/xlink" x="0px" y="0px" width="1024px" height="1024px" viewBox="0 0 1024 1024" enable-background="new 0 0 1024 1024" xml:space="preserve">
  <path fill="#272636" d="M865.195158 802.782058c-8.353248 7.616468-21.298072 7.019881-28.913517-1.332345C825.292356 789.396189 812.089659 783.71377 777.122263 790.335584c-19.805068 3.750417-53.579289 3.462868-80.07678 2.435469-82.020038 4.77577-156.375513-8.640798-205.427696-21.185508-56.42715-14.430664-91.993181-30.562063-93.480045-31.241538-10.279111-4.700045-14.802124-16.84362-10.102079-27.123754 3.439332-7.521301 10.862395-11.960403 18.625196-11.960403 2.846838 0 5.739724 0.596588 8.498558 1.858324 1.170662 0.536212 104.012935 46.801932 234.884588 49.600675 0.317225-0.191358 1.462305-0.352017 3.27151-0.48607-0.38988-1.083681-0.613984-2.246157-0.613984-3.463891l0-32.709983-17.160845 0c-10.002818 0-18.111496-8.108678-18.111496-18.111496l0-15.039531-3.307326 0c-10.729365 0-19.428491-8.698103-19.428491-19.428491l0-50.704822-43.878346 0c-16.369829 0-29.354562-14.356986-28.366048-31.363312l44.690852-769.071913 239.521189 0 44.690852 769.071913c0.988514 17.006326-11.996219 31.363312-28.366048 31.363312l-43.878346 0 0 50.704822c0 10.729365-8.698103 19.428491-19.428491 19.428491l-3.307326 0L756.37166 697.948431c0 10.002818-8.108678 18.111496-18.111496 18.111496l-17.160845 0L721.099319 748.76991c0 0.905626-0.128937 1.779529-0.349971 2.615571 23.010063-0.115634 43.918255-0.350994 48.75747-1.267876 12.040221-2.279926 22.930245-3.442402 32.870642-3.442402 27.249621 0 47.326888 8.745175 64.150042 27.194362C874.142947 782.220766 873.54636 795.16559 865.195158 802.782058zM779.107477-103.957285c0-11.30344-9.162684-20.466124-20.466124-20.466124l-77.567633 0c-11.30344 0-20.466124 9.162684-20.466124 20.466124l0 0c0 11.30344 9.162684 20.466124 20.466124 20.466124l77.567633 0C769.944793-83.491161 779.107477-92.653845 779.107477-103.957285L779.107477-103.957285zM758.641353-20.635601c11.30344 0 20.466124-9.162684 20.466124-20.466124l0 0c0-11.30344-9.162684-20.466124-20.466124-20.466124L629.364011-61.567849c-11.30344 0-20.466124 9.162684-20.466124 20.466124l0 0c0 11.30344 9.162684 20.466124 20.466124 20.466124L758.641353-20.635601zM359.77911 346.955428c0.424672 2.561335 0.656963 5.186116 0.656963 7.866155l0 34.625612c0 26.41051-21.48636 47.89687-47.895847 47.89687l-14.355963 0c-26.41051 0-47.89687-21.48636-47.89687-47.89687l0-34.625612c0-2.680039 0.232291-5.304819 0.656963-7.866155-46.186925-20.781302-78.350462-67.190285-78.350462-121.122615l0-370.94645c0-23.497157 19.047822-42.544979 42.544979-42.544979l180.444698 0c23.497157 0 42.544979 19.047822 42.544979 42.544979L438.128549 225.832813C438.129572 279.765143 405.967058 326.175149 359.77911 346.955428zM319.503824 354.821583c0-3.839445-3.124154-6.963599-6.963599-6.963599l-14.355963 0c-3.839445 0-6.964622 3.124154-6.964622 6.963599l0 34.625612c0 3.839445 3.124154 6.964622 6.964622 6.964622l14.355963 0c3.839445 0 6.963599-3.124154 6.963599-6.964622L319.503824 354.821583zM403.575592-103.957285c0-11.30344-9.162684-20.466124-20.466124-20.466124s-20.466124 9.162684-20.466124 20.466124L362.643344-0.248272c0 11.30344 9.162684 20.466124 20.466124 20.466124s20.466124-9.162684 20.466124-20.466124L403.575592-103.957285zM403.575592 65.003871c0-11.30344-9.162684-20.466124-20.466124-20.466124s-20.466124 9.162684-20.466124 20.466124l0 0c0 11.30344 9.162684 20.466124 20.466124 20.466124S403.575592 76.307312 403.575592 65.003871L403.575592 65.003871z" transform="translate(0, 812) scale(1, -1)"/>
</svg>
