<?xml version="1.0" encoding="utf-8"?>
<!DOCTYPE svg PUBLIC "-//W3C//DTD SVG 1.1//EN" "http://www.w3.org/Graphics/SVG/1.1/DTD/svg11.dtd">
<svg version="1.1" id="图形" xmlns="http://www.w3.org/2000/svg" xmlns:xlink="http://www.w3.org/1999/xlink" x="0px" y="0px" width="1024px" height="1024px" viewBox="0 0 1024 1024" enable-background="new 0 0 1024 1024" xml:space="preserve">
  <path fill="#a9b7b7" d="M1008.739946 88.282041l-0.221034 70.793346c8.429996 8.309246 13.412474 18.202571 13.412474 28.841885 0 10.728342-5.0449 20.702508-13.595646 29.043477l-0.160659 51.873438c-79.122035 74.320683-310.678832 92.352361-363.864148 96.546893-53.16485 4.195555-33.642215-12.766768-47.134507-12.766768-15.20633 0-23.39585 0.50449-42.61661-4.175089-27.228131-6.615675-12.684904-17.70729-46.267766-13.512758-35.374672 4.425799-29.001521 26.954909-48.847521 25.997094-21.842471-1.059122-22.246677-15.126512-36.222993-8.128121-13.996782 6.998391-33.601282 144.125515-41.970904 160.927179-8.410554 16.799618-32.350802 19.008936-39.187511 34.982746-6.857175 15.984043-51.349505 116.928083-55.988152 131.550105-7.54279 23.738657-25.190729 13.997805-25.190729 13.997805C95.902722 650.386182 17.385461 506.724225 17.385461 506.724225l0-179.01821c-7.966439-10.629081-12.646018-23.133883-12.646018-36.586267s4.679579-25.957185 12.646018-36.5965l0-38.531572c-7.966439-8.15882-12.646018-17.749246-12.646018-28.075429 0-10.30674 4.679579-19.897166 12.646018-28.054963l0-71.90261c-7.966439-4.840238-12.646018-10.517541-12.646018-16.628726 0-6.120394 4.679579-11.788487 12.646018-16.629749l0-148.481729 991.880465 0-0.444115 148.220786c8.268314 4.881171 13.110599 10.667967 13.110599 16.890692C1021.931387 77.582351 1017.028727 83.381427 1008.739946 88.282041zM101.186052 31.074108l0-102.124935L48.022225-71.050828l0 102.124935 0.039909 0c-0.020466 0.39295-0.039909 0.776689-0.039909 1.160429 0 18.614963 11.899004 33.711799 26.582425 33.711799 14.662955 0 26.582425-15.096836 26.582425-33.711799 0-0.38374-0.040932-0.76748-0.040932-1.160429L101.186052 31.074108zM101.186052 200.421051l0-82.146928c-18.232247-3.066849-35.94056-6.302543-53.16485-9.712199l0 91.860151 0.039909 0c-0.020466 0.39295-0.039909 0.766456-0.039909 1.159406 0 18.605753 12.201903 30.686906 26.582425 33.711799 13.452383 2.823302 26.582425-15.107069 26.582425-33.711799 0-0.39295-0.040932-0.766456-0.040932-1.159406L101.186052 200.422074zM102.336248 374.940806l0-80.513732c-18.676361-4.619204-36.424584-9.540284-53.16485-14.702863l0 82.268702 0.060375 0c-0.020466 0.342808-0.020466 0.685615-0.060375 1.028423-1.834788 25.836435 12.322653 39.833217 26.582425 43.262316 14.400988 3.448542 26.583448-5.042853 26.583448-30.314423 0-0.342808-0.020466-0.685615-0.061398-1.028423L102.336248 374.940806zM198.621175 47.480776l0-118.531604-62.220087 0L136.401088 47.480776l0.040932 0c0 0.38374-0.040932 0.766456-0.040932 1.160429 0 18.605753 13.916964 33.70259 31.100322 33.70259s31.119765-15.096836 31.119765-33.70259c0-0.393973-0.039909-0.776689-0.060375-1.160429L198.621175 47.480776zM198.621175 226.722066l0-94.411253c-21.25714-2.601244-42.011836-5.40408-62.220087-8.429996L136.401088 226.722066l0.040932 0c0 0.382717-0.040932 0.765433-0.040932 1.149173 0 18.614963 14.158465 30.777981 31.100322 33.711799 15.731286 2.721994 30.232558-7.543813 31.119765-33.711799 0.020466-0.38374-0.039909-0.766456-0.060375-1.149173L198.621175 226.722066zM199.791837 408.925828l0-94.571912c-21.580504-3.609201-42.354644-7.554046-62.240553-11.818163L137.551284 400.556207l0 0c0 0.36225 0 0.644683 0 1.048889 0 21.217231 14.461363 34.438347 31.100322 38.663578 16.33606 4.145413 31.140231-5.768377 31.140231-30.293957 0-0.36225-0.061398-0.695848-0.061398-1.047866L199.791837 408.926852zM307.069119 60.459369l0-131.510196-68.876694 0L238.192426 60.459369l0.061398 0c-0.020466 0.394996-0.061398 0.777713-0.061398 1.160429 0 18.626219 15.408945 33.70259 34.44858 33.70259 18.998703 0 34.428114-15.075347 34.428114-33.70259 0-0.382717-0.040932-0.765433-0.060375-1.160429L307.069119 60.459369zM307.069119 249.794551l0-106.59269c-23.39585-1.87572-46.388517-4.003174-68.876694-6.393617L238.192426 249.794551l0.061398 0c-0.020466 0.372483-0.061398 0.7552-0.061398 1.14815 0 18.615986 15.631002 30.898731 34.44858 33.70259 17.788132 2.662643 34.428114-15.08558 34.428114-33.70259 0-0.39295-0.040932-0.775666-0.060375-1.14815L307.069119 249.794551zM308.238758 428.34818l0-99.441826c-23.63735-2.440585-46.630017-5.254677-68.87567-8.429996L239.363088 428.34818l0.060375 0c-0.020466 0.342808-0.060375 0.685615-0.060375 1.028423 0 16.740266 15.610536 28.054963 34.085306 31.322379 18.051121 3.186576 34.791387-8.853645 34.791387-31.322379 0-0.342808-0.039909-0.685615-0.060375-1.028423L308.238758 428.34818zM426.306804 74.286282l0-145.336086-77.06519 0L349.241614 74.286282l0.039909 0c0 0.39295-0.039909 0.776689-0.039909 1.149173 0 18.636452 17.264199 33.722032 38.522362 33.722032 21.298072 0 38.542828-15.08558 38.542828-33.722032 0-0.372483-0.020466-0.756223-0.061398-1.149173L426.306804 74.286282zM426.306804 272.927411l0-122.646318c-26.098401-1.028423-51.814086-2.379187-77.06519-4.033873L349.241614 272.927411l0.039909 0c0 0.38374-0.039909 0.76748-0.039909 1.150196 0 18.614963 17.58654 29.879518 38.522362 33.711799 21.580504 3.932566 38.542828-15.096836 38.542828-33.711799 0-0.382717-0.020466-0.766456-0.061398-1.150196L426.306804 272.927411zM551.65465 79.51947l0-150.570297-77.084633 0L474.570018 79.51947l0.061398 0c-0.020466 0.393973-0.061398 0.756223-0.061398 1.13894 0 18.626219 17.244756 33.722032 38.542828 33.722032 21.277606 0 38.541805-15.095813 38.541805-33.722032 0-0.382717-0.059352-0.74599-0.078795-1.13894L551.65465 79.51947zM765.062088 74.286282l0-145.336086-77.125565 0L687.936523 74.286282l0.101307 0c-0.040932 0.39295-0.101307 0.776689-0.101307 1.149173 0 18.636452 17.264199 33.722032 38.541805 33.722032 21.298072 0 38.58376-15.08558 38.58376-33.722032 0-0.372483-0.062422-0.756223-0.062422-1.149173L765.062088 74.286282zM765.062088 272.927411l0-130.431631c-25.211195 2.088568-50.947346 3.873214-77.125565 5.345752L687.936523 272.927411l0.101307 0c-0.040932 0.38374-0.101307 0.76748-0.101307 1.150196 0 18.614963 17.264199 33.711799 38.541805 33.711799 21.298072 0 38.58376-15.096836 38.58376-33.711799 0-0.382717-0.062422-0.766456-0.062422-1.150196L765.062088 272.927411zM876.10923 60.459369l0-131.510196-68.896136 0L807.213094 60.459369l0.062422 0c-0.020466 0.394996-0.062422 0.777713-0.062422 1.160429 0 18.626219 15.409968 33.70259 34.43016 33.70259 19.038612 0 34.466999-15.075347 34.466999-33.70259 0-0.382717-0.039909-0.765433-0.078795-1.160429L876.10923 60.459369zM876.10923 249.794551l0-118.895901c-22.427802 2.854001-45.420469 5.425569-68.896136 7.764847l0 111.131053 0.062422 0c-0.020466 0.372483-0.062422 0.7552-0.062422 1.14815 0 18.615986 15.409968 33.70259 34.43016 33.70259 19.038612 0 34.466999-15.08558 34.466999-33.70259 0-0.39295-0.039909-0.775666-0.078795-1.14815L876.10923 249.794551zM977.881125 47.480776l0-118.531604-62.200644 0L915.680481 47.480776l0.061398 0c-0.038886 0.38374-0.061398 0.766456-0.061398 1.160429 0 18.605753 13.93743 33.70259 31.080879 33.70259 17.22429 0 31.119765-15.096836 31.119765-33.70259 0-0.393973 0-0.776689-0.039909-1.160429L977.881125 47.480776zM977.881125 220.478875l0-104.886839c-20.087501 3.539616-40.881083 6.857175-62.200644 9.93221l0 94.954629 0.061398 0c-0.038886 0.372483-0.061398 0.756223-0.061398 1.159406 0 18.615986 13.93743 33.703613 31.080879 33.703613 17.22429 0 31.119765-15.086603 31.119765-33.703613 0-0.403183 0-0.786922-0.039909-1.159406L977.881125 220.478875z" transform="translate(0, 812) scale(1, -1)"/>
</svg>
