<?xml version="1.0" encoding="utf-8"?>
<!DOCTYPE svg PUBLIC "-//W3C//DTD SVG 1.1//EN" "http://www.w3.org/Graphics/SVG/1.1/DTD/svg11.dtd">
<svg version="1.1" id="图形" xmlns="http://www.w3.org/2000/svg" xmlns:xlink="http://www.w3.org/1999/xlink" x="0px" y="0px" width="1024px" height="1024px" viewBox="0 0 1024 1024" enable-background="new 0 0 1024 1024" xml:space="preserve">
  <path fill="#272636" d="M75.776 445.408l872.448 0L562.176 652.256l-5.12 0c11.264 21.504 17.408 47.104 17.408 63.488 0 33.792-27.648 61.44-62.464 61.44-34.816 0-62.464-27.648-62.464-61.44 0-16.384 7.168-41.984 17.408-63.488l-7.168 0L75.776 445.408zM34.816-94.24l0-82.944 954.368 0 0 82.944L34.816-94.24zM161.792 320.48l-2.048 0 0-290.816 2.048 0-44.032-50.176 0-74.752 789.504 0 0 73.728-41.984 51.2 1.024 0L866.304 320.48l-1.024 0 40.96 40.96 41.984 0 0 82.944L75.776 444.384l0-82.944 48.128 0L161.792 320.48zM658.432 320.48l123.904 0 0-289.792L658.432 30.688 658.432 320.48zM450.56 320.48l123.904 0 0-289.792L450.56 30.688 450.56 320.48zM241.664 320.48l124.928 0 0-289.792L241.664 30.688 241.664 320.48z" transform="translate(0, 812) scale(1, -1)"/>
</svg>
