<?xml version="1.0" encoding="utf-8"?>
<!DOCTYPE svg PUBLIC "-//W3C//DTD SVG 1.1//EN" "http://www.w3.org/Graphics/SVG/1.1/DTD/svg11.dtd">
<svg version="1.1" id="图形" xmlns="http://www.w3.org/2000/svg" xmlns:xlink="http://www.w3.org/1999/xlink" x="0px" y="0px" width="1000px" height="1024px" viewBox="0 0 1000 1024" enable-background="new 0 0 1000 1024" xml:space="preserve">
  <path fill="#272636" d="M868.043-92.5781H131.958984375c-6.6445 0-12.3965 2.4277-17.252 7.2832S107.4219-74.6875 107.4219-68.043V471.751953125c0 6.6445 2.4277 12.3965 7.2832 17.252s10.6074 7.2832 17.252 7.2832H303.7109375V668.041015625c0 6.6445 2.4277 12.3965 7.2832 17.252S321.6016 692.5781 328.248 692.5781h147.216796875c6.6445 0 12.3965-2.4277 17.252-7.2832S500 674.6875 500 668.041v-220.826171875h49.072265625v73.609375c0 6.6445 2.4297 12.3965 7.2832 17.252s10.6055 7.2832 17.252 7.2832h24.537109375c0 15.8457 4.5996 30.0313 13.8008 42.5547s21.2129 21.3418 36.0371 26.4531c1.0215 22.4922 3.834 41.1484 8.4336 55.9727S666.1309 692.5781 671.7539 692.5781s10.7344-7.4121 15.3359-22.2363 7.4121-33.4824 8.4336-55.9727c14.8242-5.1113 26.8359-13.9297 36.0371-26.4531s13.8008-26.709 13.8008-42.5547h24.537109375c6.6445 0 12.3965-2.4277 17.252-7.2832s7.2832-10.6074 7.2832-17.252V300h73.609375c6.6445 0 12.3965-2.4297 17.252-7.2832s7.2832-10.6055 7.2832-17.252v-343.505859375c0-6.6445-2.4277-12.3965-7.2832-17.252S874.6875-92.5781 868.043-92.5781zM205.5664 447.2168H156.494140625v-49.072265625h49.072265625V447.216796875zM205.5664 349.0723H156.494140625V300h49.072265625V349.072265625zM205.5664 152.7832H156.494140625V103.7109375h49.072265625V152.783203125zM303.7109 447.2168h-49.072265625v-49.072265625H303.7109375V447.216796875zM303.7109 250.9277h-49.072265625v-49.072265625H303.7109375V250.927734375zM352.7832 5.5664h49.072265625v49.072265625h-49.072265625V5.56640625zM352.7832 103.7109h49.072265625v49.072265625h-49.072265625V103.7109375zM401.8555 643.5059h-49.072265625v-49.072265625h49.072265625V643.505859375zM450.9277 545.3613H401.85546875V496.2890625h49.072265625V545.361328125zM450.9277 447.2168H401.85546875v-49.072265625h49.072265625V447.216796875zM450.9277 250.9277H401.85546875v-49.072265625h49.072265625V250.927734375zM549.0723 398.1445H500v-49.072265625h49.072265625V398.14453125zM549.0723 300H500v-49.072265625h49.072265625V300zM549.0723 103.7109H500v-49.072265625h49.072265625V103.7109375zM647.2168 447.2168H598.14453125v-49.072265625h49.072265625V447.216796875zM647.2168 349.0723H598.14453125V300h49.072265625V349.072265625zM647.2168 103.7109H598.14453125v-49.072265625h49.072265625V103.7109375zM745.3613 398.1445H696.2890625v-49.072265625h49.072265625V398.14453125zM745.3613 201.8555H696.2890625v-49.072265625h49.072265625V201.85546875zM745.3613 54.6387H696.2890625v-49.072265625h49.072265625V54.638671875zM843.5059 250.9277H794.43359375v-49.072265625h49.072265625V250.927734375zM843.5059 152.7832H794.43359375V103.7109375h49.072265625V152.783203125zM843.5059 54.6387H794.43359375v-49.072265625h49.072265625V54.638671875z" transform="translate(0, 812) scale(1, -1)"/>
</svg>
